<svg width="20" height="22" viewBox="0 0 20 22" fill="none" xmlns="http://www.w3.org/2000/svg">
<path d="M19.3122 6.94062C19.173 6.80063 19.0075 6.68961 18.8252 6.61398C18.6429 6.53835 18.4474 6.49961 18.25 6.5H15.25V5.75C15.25 4.35761 14.6969 3.02226 13.7123 2.03769C12.7277 1.05312 11.3924 0.5 10 0.5C8.60761 0.5 7.27226 1.05312 6.28769 2.03769C5.30312 3.02226 4.75 4.35761 4.75 5.75V6.5H1.75C1.35218 6.5 0.970644 6.65804 0.68934 6.93934C0.408035 7.22064 0.25 7.60218 0.25 8V18.125C0.25 19.9531 1.79688 21.5 3.625 21.5H16.375C17.2593 21.5003 18.1086 21.1545 18.7413 20.5367C19.0596 20.233 19.3132 19.8679 19.4865 19.4634C19.6599 19.059 19.7495 18.6236 19.75 18.1836V8C19.7506 7.80326 19.7122 7.60834 19.6371 7.42652C19.5619 7.24469 19.4515 7.07955 19.3122 6.94062V6.94062ZM13 14.75H10.75V17C10.75 17.1989 10.671 17.3897 10.5303 17.5303C10.3897 17.671 10.1989 17.75 10 17.75C9.80109 17.75 9.61032 17.671 9.46967 17.5303C9.32902 17.3897 9.25 17.1989 9.25 17V14.75H7C6.80109 14.75 6.61032 14.671 6.46967 14.5303C6.32902 14.3897 6.25 14.1989 6.25 14C6.25 13.8011 6.32902 13.6103 6.46967 13.4697C6.61032 13.329 6.80109 13.25 7 13.25H9.25V11C9.25 10.8011 9.32902 10.6103 9.46967 10.4697C9.61032 10.329 9.80109 10.25 10 10.25C10.1989 10.25 10.3897 10.329 10.5303 10.4697C10.671 10.6103 10.75 10.8011 10.75 11V13.25H13C13.1989 13.25 13.3897 13.329 13.5303 13.4697C13.671 13.6103 13.75 13.8011 13.75 14C13.75 14.1989 13.671 14.3897 13.5303 14.5303C13.3897 14.671 13.1989 14.75 13 14.75ZM13.75 6.5H6.25V5.75C6.25 4.75544 6.64509 3.80161 7.34835 3.09835C8.05161 2.39509 9.00544 2 10 2C10.9946 2 11.9484 2.39509 12.6517 3.09835C13.3549 3.80161 13.75 4.75544 13.75 5.75V6.5Z" fill="#0034B9"/>
</svg>
