<svg width="27" height="22" viewBox="0 0 27 22" fill="none" xmlns="http://www.w3.org/2000/svg">
<path d="M9.75 11C11.407 11 12.75 9.65703 12.75 8C12.75 6.34297 11.407 5 9.75 5C8.09297 5 6.75 6.34297 6.75 8C6.75 9.65469 8.09531 11 9.75 11ZM21.75 9.875H17.25C16.6289 9.875 16.125 10.3789 16.125 11C16.125 11.6211 16.6289 12.125 17.25 12.125H21.75C22.3711 12.125 22.875 11.6211 22.875 11C22.875 10.3789 22.3734 9.875 21.75 9.875ZM11.25 12.5H8.25C6.17812 12.5 4.5 14.1781 4.5 16.25C4.5 16.6625 4.8375 17 5.25 17H14.25C14.6642 17 15 16.6642 15 16.25C15 14.1781 13.3219 12.5 11.25 12.5ZM21.75 6.125H17.25C16.6289 6.125 16.125 6.62891 16.125 7.25C16.125 7.87109 16.6289 8.375 17.25 8.375H21.75C22.3711 8.375 22.875 7.87109 22.875 7.25C22.875 6.62891 22.3734 6.125 21.75 6.125ZM24 0.5H3C1.34297 0.5 0 1.84297 0 3.5V18.5C0 20.157 1.34297 21.5 3 21.5H24C25.657 21.5 27 20.157 27 18.5V3.5C27 1.84297 25.6547 0.5 24 0.5ZM24.75 18.5C24.75 18.9135 24.4135 19.25 24 19.25H3C2.58647 19.25 2.25 18.9135 2.25 18.5V3.5C2.25 3.08647 2.58647 2.75 3 2.75H24C24.4135 2.75 24.75 3.08647 24.75 3.5V18.5Z" fill="black"/>
</svg>
