<svg width="13" height="13" viewBox="0 0 13 13" fill="none" xmlns="http://www.w3.org/2000/svg">
<path d="M0.5 1.01429C0.5 0.877889 0.554187 0.747078 0.650641 0.650631C0.747095 0.554183 0.877915 0.5 1.01432 0.5H1.39698C2.04845 0.5 2.43934 0.938171 2.66221 1.34549C2.81102 1.61703 2.91868 1.93177 3.00303 2.21703C3.02585 2.21523 3.04872 2.21431 3.07161 2.21429H11.6423C12.2114 2.21429 12.6229 2.75874 12.4666 3.30663L11.213 7.70137C11.1006 8.09556 10.8628 8.44239 10.5356 8.68936C10.2085 8.93632 9.80974 9.06997 9.39982 9.07006H5.32091C4.90773 9.07007 4.50598 8.93441 4.17742 8.68391C3.84885 8.43341 3.61165 8.08195 3.50227 7.68354L2.98109 5.78274L2.11703 2.86983L2.11634 2.86434C2.00936 2.47554 1.90924 2.11143 1.75975 1.83989C1.61642 1.57589 1.50121 1.52857 1.39766 1.52857H1.01432C0.877915 1.52857 0.747095 1.47439 0.650641 1.37794C0.554187 1.28149 0.5 1.15068 0.5 1.01429ZM4.95745 12.5C5.3212 12.5 5.67006 12.3555 5.92727 12.0983C6.18448 11.8411 6.32898 11.4923 6.32898 11.1286C6.32898 10.7648 6.18448 10.416 5.92727 10.1588C5.67006 9.90163 5.3212 9.75714 4.95745 9.75714C4.5937 9.75714 4.24485 9.90163 3.98764 10.1588C3.73043 10.416 3.58593 10.7648 3.58593 11.1286C3.58593 11.4923 3.73043 11.8411 3.98764 12.0983C4.24485 12.3555 4.5937 12.5 4.95745 12.5ZM9.75779 12.5C10.1215 12.5 10.4704 12.3555 10.7276 12.0983C10.9848 11.8411 11.1293 11.4923 11.1293 11.1286C11.1293 10.7648 10.9848 10.416 10.7276 10.1588C10.4704 9.90163 10.1215 9.75714 9.75779 9.75714C9.39404 9.75714 9.04519 9.90163 8.78798 10.1588C8.53076 10.416 8.38626 10.7648 8.38626 11.1286C8.38626 11.4923 8.53076 11.8411 8.78798 12.0983C9.04519 12.3555 9.39404 12.5 9.75779 12.5Z" fill="black"/>
</svg>
